<svg width="241" height="46" viewBox="0 0 241 46" fill="none" xmlns="http://www.w3.org/2000/svg">
<path d="M44.9973 22.9552C45.0341 27.9214 43.5479 32.5396 40.5103 36.6147C37.2301 41.0159 32.9319 43.907 27.6174 45.2068C25.8248 45.645 23.9975 45.8358 22.1546 45.7834C17.1253 45.6414 12.5637 44.1062 8.5953 40.9472C4.65648 37.8124 2.05238 33.7629 0.751881 28.8675C0.166969 26.6656 -0.0591143 24.4218 0.0129627 22.1413C0.133264 18.3324 1.09878 14.7662 2.97071 11.4573C5.45762 7.06245 9.04435 3.90821 13.6137 1.87247C15.3519 1.0978 17.1616 0.557942 19.035 0.260758C20.572 0.0170358 22.1193 -0.0636808 23.6791 0.025422C27.0594 0.218303 30.2427 1.11824 33.1912 2.78027C38.5591 5.8061 42.2386 10.2565 44.0603 16.2238C44.4974 17.6557 44.7727 19.1244 44.9174 20.6145C44.9884 21.3435 45.0071 22.0784 44.9978 22.9547L44.9973 22.9552ZM4.01366 26.0599C4.07883 25.4216 4.3801 23.4065 4.74152 21.6779C5.08064 20.0547 5.67748 18.5216 6.40188 17.0357C7.61319 14.5508 9.24607 12.3877 11.2533 10.5086C11.341 10.4269 11.3612 10.3367 11.3643 10.2308C11.3762 9.82149 11.4089 9.41529 11.4779 9.00961C11.7672 7.3046 12.6752 6.05768 14.1758 5.24108C14.8307 4.88467 15.5251 4.7028 16.266 4.82597C17.5748 5.04348 18.7198 5.60693 19.6682 6.55456C19.761 6.64733 19.8486 6.67564 19.986 6.66568C21.0734 6.58496 22.1592 6.61327 23.2383 6.78309C23.3903 6.8072 23.481 6.77208 23.592 6.65415C24.1442 6.06817 24.7716 5.58334 25.5375 5.31394C26.2303 5.07021 26.9122 5.08961 27.4893 5.58544C28.2557 6.24375 28.6389 7.11644 28.6887 8.12539C28.7001 8.36073 28.7675 8.4708 28.9713 8.57405C30.2962 9.24337 31.5966 9.95567 32.8225 10.8021C33.7766 11.461 34.3682 12.298 34.306 13.5203C34.2894 13.84 34.4165 14.1314 34.6171 14.3862C35.3353 15.2976 36.2018 16.066 36.9931 16.9073C37.7719 17.7354 38.5938 18.5211 39.2145 19.4902C39.4058 19.789 39.4349 20.0568 39.2726 20.365C39.1481 20.6014 39.0564 20.8477 39.0086 21.1197C38.8832 21.8347 38.9003 22.5616 38.8064 23.2776C38.6498 24.4763 38.1334 25.4779 37.1694 26.219C37.0807 26.2872 37.0512 26.3385 37.0729 26.4533C37.102 26.6058 37.0968 26.7657 37.1035 26.9224C37.1798 28.7286 36.3734 30.0436 34.8883 30.9776C34.4289 31.2664 33.9342 31.3288 33.4001 31.2465C32.2448 31.0683 31.215 30.5919 30.2479 29.9514C29.8155 29.6652 29.3711 29.3969 28.8904 29.2014C28.4289 29.0137 28.1344 29.2265 28.1261 29.7328C28.1141 30.4467 28.403 31.0688 28.7188 31.6784C31.767 37.5576 38.578 37.9126 41.5028 31.0751C42.4611 28.835 42.9314 26.4753 43.0724 24.0407C43.1912 21.9887 43.0346 19.9598 42.5549 17.9697C41.382 13.1041 38.8323 9.1354 34.8515 6.13211C31.5406 3.63409 27.8212 2.22102 23.6972 1.93275C21.803 1.80014 19.9176 1.93013 18.0674 2.36201C13.2419 3.4889 9.27666 6.01628 6.22454 9.96144C3.65622 13.2808 2.29661 17.087 1.94659 21.2702C1.82785 22.6906 1.86778 24.111 2.03423 25.5293C2.22661 27.1672 2.75824 28.8675 2.75824 28.8675C2.75824 28.8675 3.85984 27.5665 4.01366 26.0599ZM16.3381 10.0663C16.6036 9.98817 16.8458 10.0458 17.0791 10.1847C17.3047 10.3189 17.4991 10.4871 17.6671 10.691C18.0809 11.1926 18.3469 11.7739 18.5684 12.3798C18.6249 12.5339 18.6721 12.6917 18.7239 12.8478C18.5865 12.8913 18.4465 12.9265 18.3132 12.9799C18.1779 13.0339 18.0431 13.0942 17.9197 13.1712C17.4369 13.471 17.0827 13.8945 16.8167 14.394C16.3692 15.2342 16.0726 16.1305 15.8994 17.0661C15.8165 17.5132 15.802 17.9697 15.8253 18.4325C16.2297 17.6164 16.5429 16.7584 17.1424 15.978C17.1346 16.097 17.1382 16.1415 17.1279 16.1829C16.9645 16.8381 16.9199 17.5048 16.9168 18.1778C16.9116 19.4378 17.1896 20.6202 17.9269 21.6486C19.0366 23.1958 20.5606 24.1466 22.3589 24.6734C22.6098 24.7467 22.8629 24.8138 23.1802 24.7986C22.1743 23.8274 21.1823 22.9076 20.39 21.733C22.1333 22.3378 23.8523 22.5732 25.6506 22.1801C24.473 21.0862 23.1704 20.1506 22.4999 18.5808C22.5647 18.6254 22.5881 18.6348 22.6031 18.6521C23.5593 19.7601 24.7867 20.4488 26.1318 20.9347C26.4642 21.0547 26.6545 21.234 26.8033 21.5464C27.2134 22.4091 27.7626 23.1586 28.6384 23.6041C28.6539 23.612 28.6581 23.6424 28.6679 23.6649C27.9 23.797 27.5375 24.1513 27.5562 24.8002C27.5754 25.4695 27.8481 26.0529 28.2879 26.5403C28.8655 27.1808 29.5391 27.716 30.2261 28.2317C31.1481 28.9236 32.1084 29.5499 33.2036 29.9336C33.5282 30.0473 33.8564 30.0782 34.1925 29.9771C35.3441 29.6306 36.2189 28.3004 36.1686 26.9691C36.1515 26.5146 35.9047 26.1703 35.4712 26.0398C35.0449 25.9114 34.6151 25.9397 34.208 26.1168C33.6796 26.3469 33.1642 26.6074 32.6363 26.838C32.139 27.0556 31.6288 27.282 31.0838 27.2851C30.1696 27.2904 29.4743 26.8013 28.8779 26.1472C28.81 26.0728 28.7125 25.9758 28.7654 25.8757C28.8111 25.7887 28.9397 25.783 29.0418 25.7761C29.5012 25.7457 29.9508 25.8092 30.3999 25.9082C30.9625 26.0319 31.5266 26.1787 32.1095 26.0534C33.3503 25.7871 34.4455 25.1964 35.4847 24.4868C35.7294 24.3196 35.872 24.0806 35.9156 23.7734C35.9757 23.3468 35.957 22.9207 35.957 22.4935C35.957 22.255 35.8725 22.1371 35.6376 22.0427C35.0066 21.7901 34.3739 21.5233 33.8995 20.9981C33.5422 20.6024 33.4701 20.1548 33.7009 19.7203C34.0597 20.0306 34.4917 20.0505 34.9236 19.9955C35.4821 19.9242 36.0317 19.9672 36.5617 20.126C37.0792 20.2811 37.5225 20.1663 37.9664 19.9079C38.124 19.8162 38.1085 19.7638 37.9996 19.6448C36.6374 18.1589 35.2648 16.6845 33.7616 15.3396C33.1855 14.8238 32.6555 14.2583 32.3506 13.5224C32.32 13.449 32.2386 13.373 32.3122 13.2588C32.334 13.2881 32.3501 13.308 32.3646 13.3295C32.4517 13.46 32.5575 13.6361 32.7079 13.5963C32.8199 13.567 32.8028 13.3542 32.8209 13.2189C32.8323 13.134 32.8245 13.0444 32.8126 12.959C32.7416 12.4626 32.4268 12.1408 32.0452 11.863C30.572 10.7911 29.0045 9.89068 27.3244 9.19306C25.6952 8.5164 24.0374 7.96082 22.2495 7.92465C21.8212 7.91574 21.3991 7.95924 20.9464 7.96134C21.2751 8.76484 21.2917 9.55156 21.1388 10.3509C21.0765 10.3137 21.0465 10.2728 21.021 10.2293C20.2178 8.84608 19.076 7.79204 17.7963 6.88162C17.2082 6.46336 16.5372 6.20863 15.8123 6.24585C14.8141 6.29669 14.0011 6.76998 13.4509 7.60283C12.6586 8.80153 12.5901 10.1082 13.0646 11.4489C13.482 12.6288 14.2572 13.535 15.2632 14.2745C15.3918 13.8102 15.6365 13.4045 15.9834 13.0517C15.2684 12.6749 14.7307 12.1298 14.266 11.5228C13.6127 10.6695 13.4359 9.69832 13.7651 8.6642C14.1763 7.37169 15.3659 6.94766 16.4797 7.6825C16.9692 8.00537 17.3747 8.42153 17.7112 8.90321C17.9274 9.2135 18.126 9.53531 18.1935 9.95462C17.5308 9.55942 16.9194 9.59035 16.3376 10.0684L16.3381 10.0663ZM11.4395 30.2355C9.40215 29.6752 7.60852 27.3727 7.37258 23.8835C7.30829 23.9422 7.29895 24.0208 7.28443 24.0942C7.05472 25.2326 7.04435 26.3684 7.22014 27.521C7.45711 29.0761 8.20121 30.3036 9.40733 31.2675C10.0524 31.7827 10.7768 32.1706 11.4784 32.5951C12.7872 33.386 14.0363 34.2535 14.9925 35.4821C15.6936 36.383 16.2297 37.3627 16.3931 38.5194C16.4123 38.6546 16.3604 38.8077 16.4766 38.9613C16.5321 38.8234 16.5808 38.7144 16.6202 38.6022C17.0553 37.3553 17.0413 36.1042 16.5927 34.8709C16.208 33.8127 15.9321 32.7482 16.0944 31.6071C16.1774 31.0222 16.3122 30.4572 16.6332 29.8691C16.6824 32.6863 18.1183 34.4726 20.4564 35.6299C19.677 34.4946 19.2985 33.2168 19.1019 31.8703C18.979 31.028 18.8743 30.1815 18.6244 29.3649C18.4885 28.9215 18.3303 28.4854 18.182 28.0456C18.7763 28.5404 19.3213 29.0656 19.7071 29.7365C20.0996 30.4189 20.3257 31.1695 20.5497 31.9143C21.1388 33.874 22.2474 35.4234 23.9326 36.5749C25.0164 37.3155 25.7226 38.3706 26.1318 39.6243C26.2645 40.0315 26.3216 40.4556 26.3454 40.8875C26.7322 40.1217 26.9288 39.3072 26.9806 38.4644C27.0828 36.8018 26.6415 35.2546 25.8741 33.8085C25.3462 32.8132 24.7245 31.8687 24.1504 30.898C23.9586 30.5735 23.7838 30.2386 23.6013 29.9089C23.7864 31.6454 24.1364 33.3373 24.698 35.0219C24.5124 34.9087 24.4081 34.7713 24.2972 34.6408C23.5463 33.7566 23.0776 32.711 22.6321 31.6533C22.2946 30.8519 21.9461 30.0599 21.4577 29.335C20.5761 28.0273 19.4125 27.0005 18.2308 25.9905C17.4706 25.3411 16.7307 24.6671 16.1328 23.8604C15.4519 22.9416 14.8821 21.9573 14.6715 20.7974C14.6409 20.8184 14.6176 20.8252 14.6155 20.8362C14.4818 21.5783 14.4455 22.3221 14.5652 23.0716C14.7084 23.9663 15.006 24.8185 15.2404 25.6886C15.3742 26.185 15.5142 26.6813 15.5266 27.2228C15.4913 27.195 15.4737 27.1876 15.468 27.1756C14.979 26.0356 14.3013 25.0062 13.6277 23.9742C12.5403 22.3085 11.8699 20.4997 11.7765 18.4886C11.7584 18.0939 11.7454 17.6987 11.7449 17.2658C10.8058 18.4624 10.5839 19.7921 10.7986 21.288C10.4257 20.876 10.1815 20.463 10.0306 19.9986C9.65001 18.8314 9.69616 17.6521 9.95387 16.4686C10.0431 16.0587 10.1774 15.6609 10.2852 15.2515C10.0047 15.5178 9.76927 15.8155 9.54682 16.1232C8.61034 17.4204 8.16595 18.8759 8.33292 20.4709C8.49522 22.0239 9.31762 23.2524 10.4314 24.2866C10.965 24.7819 11.5598 25.2101 12.0903 25.7085C13.4815 27.0147 14.3034 28.5666 14.0203 30.5589C13.9611 30.9761 13.8554 31.3791 13.5785 31.7466C13.3202 29.205 11.8626 27.4817 9.88802 26.0938C9.88439 26.1299 9.87402 26.1572 9.88024 26.1808C10.2401 27.5818 10.7664 28.9183 11.4384 30.237L11.4395 30.2355ZM37.9731 21.8876C37.5718 22.091 37.256 22.3572 36.9262 22.6009C36.893 22.6256 36.8583 22.6607 36.8448 22.6984C36.6431 23.2718 36.4725 23.8536 36.4828 24.4695C36.4854 24.6189 36.5005 24.8065 36.6695 24.8704C36.8339 24.9323 36.9609 24.806 37.0828 24.7095C37.1232 24.6776 37.16 24.6398 37.1943 24.6005C37.8627 23.8258 38.0255 22.906 37.9726 21.8871L37.9731 21.8876Z" fill="white"/>
<path d="M28.4906 12.2614C28.9848 12.9081 29.438 13.5707 29.4177 14.4355C29.4136 14.609 29.4152 14.7914 29.3628 14.9528C29.2907 15.1745 29.3892 15.3144 29.5158 15.4617C30.1769 16.2322 30.8302 17.0095 31.3338 17.9C31.3706 17.965 31.438 18.0169 31.4302 18.1427C30.1686 17.227 28.8722 16.4293 27.2663 16.2783C27.6781 15.8784 27.8829 15.4308 27.7844 14.8013C27.6687 15.0146 27.6034 15.1782 27.4763 15.3045C27.1211 15.6588 26.6135 15.6635 26.2536 15.3155C26.0332 15.1027 25.8964 14.8301 25.6998 14.5917C25.5531 15.2049 25.9746 15.609 26.2635 16.1048C25.6765 15.8208 25.1268 15.5162 24.7872 14.9801C24.545 14.598 24.2178 14.4978 23.8284 14.4538C23.5754 14.425 23.3218 14.3967 23.0594 14.3207C23.3638 14.2353 23.6697 14.154 23.9731 14.0639C24.5321 13.8972 25.0952 13.7415 25.6459 13.5513C26.5813 13.2279 27.4582 13.4045 28.3138 13.8233C28.5736 13.9501 28.5767 13.9512 28.5824 13.6446C28.5907 13.1828 28.5798 12.7231 28.4911 12.2619L28.4906 12.2614Z" fill="white"/>
<path d="M65.96 5.81062H69.32V17.0106H76.2V19.8906H65.96V5.81062ZM87.7234 14.2906C87.7234 14.5906 87.7034 15.1106 87.6634 15.4106H80.0034C80.2234 16.7506 81.1234 17.6506 82.4634 17.6506C83.4634 17.6506 84.0834 17.1506 84.3434 16.3706H87.5234C87.1034 18.3706 85.4634 20.2106 82.4834 20.2106C78.8034 20.2106 76.8434 17.7306 76.8434 14.6106C76.8434 11.3306 78.8834 9.01062 82.4234 9.01062C85.1034 9.01062 87.7234 10.6506 87.7234 14.2906ZM82.4834 11.4906C80.9634 11.4906 80.3234 12.3506 80.0834 13.4906H84.5834C84.4634 12.2106 83.6634 11.4906 82.4834 11.4906ZM94.045 9.01062C97.525 9.01062 99.645 11.5306 99.645 14.6106C99.645 17.6906 97.525 20.2106 94.045 20.2106C90.565 20.2106 88.445 17.6906 88.445 14.6106C88.445 11.5306 90.565 9.01062 94.045 9.01062ZM94.045 17.4906C95.625 17.4906 96.445 16.1706 96.445 14.6106C96.445 13.0506 95.625 11.7306 94.045 11.7306C92.465 11.7306 91.645 13.0506 91.645 14.6106C91.645 16.1706 92.465 17.4906 94.045 17.4906ZM107.368 9.01062C109.648 9.01062 111.168 10.4906 111.168 13.4906V19.8906H107.968V14.7706C107.968 12.3906 107.428 11.7306 106.288 11.7306C104.988 11.7306 103.808 13.3906 103.808 15.8306V19.8906H100.608V9.33063H103.808V9.83062C103.808 10.3106 103.708 10.6506 103.548 10.9706C103.388 11.2906 103.188 11.6906 103.448 11.7906C103.688 11.8906 103.788 11.6506 103.868 11.4906C104.368 10.4306 105.548 9.01062 107.368 9.01062ZM119.66 11.8906H116.78V16.2906C116.78 17.2906 116.82 17.3306 117.74 17.3306H119.66V19.8906H116.7C114.58 19.8906 113.58 19.1906 113.58 16.6506V11.8906H111.66V9.33063H113.58V6.45062H116.78V9.33063H119.66V11.8906ZM119.973 9.33063H123.373L125.293 15.5906C125.413 15.9906 125.453 16.3506 125.453 16.7106C125.453 16.9106 125.493 17.1306 125.773 17.1306C126.053 17.1306 126.073 16.9106 126.093 16.7106C126.133 16.3506 126.153 15.9906 126.273 15.5906L128.093 9.33063H131.493L127.013 21.1106C126.293 22.9906 125.293 23.7306 123.453 23.7306H120.893V21.1706H121.773C123.293 21.1706 123.593 21.2506 123.953 20.3706L124.073 20.0706L119.973 9.33063ZM137.254 12.8506C137.254 8.79062 139.714 5.49062 144.374 5.49062C148.794 5.49062 150.774 8.47062 151.014 11.1306H147.674C147.474 9.91062 146.534 8.37062 144.414 8.37062C142.034 8.37062 140.614 10.3706 140.614 12.8506C140.614 15.3306 142.034 17.3306 144.414 17.3306C146.534 17.3306 147.474 15.7906 147.674 14.5706H151.014C150.774 17.2306 148.794 20.2106 144.374 20.2106C139.714 20.2106 137.254 16.9106 137.254 12.8506ZM157.248 9.01062C160.728 9.01062 162.848 11.5306 162.848 14.6106C162.848 17.6906 160.728 20.2106 157.248 20.2106C153.768 20.2106 151.648 17.6906 151.648 14.6106C151.648 11.5306 153.768 9.01062 157.248 9.01062ZM157.248 17.4906C158.828 17.4906 159.648 16.1706 159.648 14.6106C159.648 13.0506 158.828 11.7306 157.248 11.7306C155.668 11.7306 154.848 13.0506 154.848 14.6106C154.848 16.1706 155.668 17.4906 157.248 17.4906ZM170.572 9.01062C172.852 9.01062 174.372 10.4906 174.372 13.4906V19.8906H171.172V14.7706C171.172 12.3906 170.632 11.7306 169.492 11.7306C168.192 11.7306 167.012 13.3906 167.012 15.8306V19.8906H163.812V9.33063H167.012V9.83062C167.012 10.3106 166.912 10.6506 166.752 10.9706C166.592 11.2906 166.392 11.6906 166.652 11.7906C166.892 11.8906 166.992 11.6506 167.072 11.4906C167.572 10.4306 168.752 9.01062 170.572 9.01062ZM175.34 16.2106H178.5C178.52 17.0306 179 17.8106 180.52 17.8106C181.9 17.8106 182.38 17.3906 182.38 16.8506C182.38 16.2106 181.42 16.0306 179.64 15.8306C175.96 15.4106 175.66 13.5506 175.66 12.4506C175.66 10.6706 177.34 9.01062 180.5 9.01062C183.04 9.01062 185.1 10.1706 185.26 12.6906H182.1C182.06 11.9106 181.6 11.4106 180.44 11.4106C179.3 11.4106 178.86 11.7906 178.86 12.3106C178.86 12.6706 179.08 13.0106 180.82 13.1706C183.74 13.4506 185.58 14.3706 185.58 16.6506C185.58 18.6706 183.66 20.2106 180.44 20.2106C177.2 20.2106 175.48 18.6906 175.34 16.2106ZM190.338 20.2106C188.058 20.2106 186.538 18.7306 186.538 15.7306V9.33063H189.738V14.4506C189.738 16.8306 190.278 17.4906 191.418 17.4906C192.718 17.4906 193.898 15.8306 193.898 13.3906V9.33063H197.098V19.8906H193.898V19.3906C193.898 18.9106 193.998 18.5706 194.158 18.2506C194.318 17.9306 194.518 17.5306 194.258 17.4306C194.018 17.3306 193.918 17.5706 193.838 17.7306C193.318 18.7706 192.158 20.2106 190.338 20.2106ZM198.87 5.49062H202.07V19.8906H198.87V5.49062ZM210.715 11.8906H207.835V16.2906C207.835 17.2906 207.875 17.3306 208.795 17.3306H210.715V19.8906H207.755C205.635 19.8906 204.635 19.1906 204.635 16.6506V11.8906H202.715V9.33063H204.635V6.45062H207.835V9.33063H210.715V11.8906ZM212.151 8.05062V5.49062H215.351V8.05062H212.151ZM212.151 19.8906V9.33063H215.351V19.8906H212.151ZM223.872 9.01062C226.152 9.01062 227.672 10.4906 227.672 13.4906V19.8906H224.472V14.7706C224.472 12.3906 223.932 11.7306 222.792 11.7306C221.492 11.7306 220.312 13.3906 220.312 15.8306V19.8906H217.112V9.33063H220.312V9.83062C220.312 10.3106 220.212 10.6506 220.052 10.9706C219.892 11.2906 219.692 11.6906 219.952 11.7906C220.192 11.8906 220.292 11.6506 220.372 11.4906C220.872 10.4306 222.052 9.01062 223.872 9.01062ZM228.64 14.3706C228.64 11.2906 230.34 9.01062 233.24 9.01062C234.84 9.01062 235.9 9.85062 236.56 11.0506C236.62 11.1506 236.7 11.3306 236.88 11.2906C237.18 11.2106 237.02 10.8706 236.86 10.5306C236.72 10.2506 236.64 9.95062 236.64 9.65062V9.33063H239.84V19.1706C239.84 22.4906 237.64 24.0506 234.3 24.0506C230.98 24.0506 229.26 22.7506 228.96 20.3706H232.08C232.24 21.1506 232.82 21.6506 234.3 21.6506C236.2 21.6506 236.64 20.6306 236.64 19.3506C236.64 19.0506 236.72 18.7706 236.88 18.4906C237.08 18.1306 237.22 17.8306 236.96 17.7306C236.74 17.6506 236.64 17.8306 236.56 17.9706C235.9 19.1706 234.82 19.7306 233.24 19.7306C230.34 19.7306 228.64 17.4506 228.64 14.3706ZM234.16 17.0106C235.68 17.0106 236.64 15.7906 236.64 14.3706C236.64 12.9506 235.68 11.7306 234.16 11.7306C232.56 11.7306 231.84 12.9506 231.84 14.3706C231.84 15.7906 232.56 17.0106 234.16 17.0106ZM69.32 39.8906H65.96V25.8106H69.32V39.8906ZM77.9934 29.0106C80.2734 29.0106 81.7934 30.4906 81.7934 33.4906V39.8906H78.5934V34.7706C78.5934 32.3906 78.0534 31.7306 76.9134 31.7306C75.6134 31.7306 74.4334 33.3906 74.4334 35.8306V39.8906H71.2334V29.3306H74.4334V29.8306C74.4334 30.3106 74.3334 30.6506 74.1734 30.9706C74.0134 31.2906 73.8134 31.6906 74.0734 31.7906C74.3134 31.8906 74.4134 31.6506 74.4934 31.4906C74.9934 30.4306 76.1734 29.0106 77.9934 29.0106ZM82.7614 34.6106C82.7614 31.5306 84.8214 29.0106 88.4414 29.0106C91.6414 29.0106 93.4814 31.2106 93.6414 33.5106L90.4814 33.5306C90.3014 32.5506 89.6214 31.7306 88.4614 31.7306C86.9214 31.7306 85.9614 33.0506 85.9614 34.6106C85.9614 36.1706 86.9214 37.4906 88.4614 37.4906C89.6214 37.4906 90.3014 36.6506 90.4814 35.6706L93.6414 35.6906C93.4814 37.9906 91.6614 40.2106 88.4414 40.2106C84.8814 40.2106 82.7614 37.6906 82.7614 34.6106ZM94.6048 36.3706H98.1248V39.8906H94.6048V36.3706Z" fill="white"/>
</svg>
