<svg width="189" height="63" viewBox="0 0 189 63" fill="none" xmlns="http://www.w3.org/2000/svg">
<path d="M61.8936 31.5883C61.9442 38.4193 59.9001 44.7715 55.7218 50.3769C51.2098 56.4306 45.2977 60.4074 37.9876 62.1953C35.5219 62.798 33.0084 63.0605 30.4735 62.9884C23.5557 62.793 17.2813 60.6813 11.8228 56.3362C6.40497 52.0242 2.82304 46.4542 1.03421 39.7206C0.229665 36.6919 -0.0813115 33.6055 0.0178301 30.4687C0.183304 25.2296 1.51137 20.3243 4.0862 15.7729C7.50694 9.72781 12.4405 5.38916 18.7256 2.58901C21.1164 1.52345 23.6057 0.780881 26.1826 0.372105C28.2967 0.0368653 30.425 -0.0741602 32.5705 0.0484005C37.2202 0.313708 41.5988 1.55157 45.6543 3.83769C53.0379 7.9997 58.0991 14.1213 60.6047 22.3292C61.206 24.2988 61.5847 26.3189 61.7837 28.3686C61.8815 29.3714 61.9071 30.3822 61.8943 31.5876L61.8936 31.5883ZM5.52078 35.8588C5.61042 34.9808 6.02481 32.209 6.52194 29.8314C6.98841 27.5986 7.80936 25.4898 8.80577 23.446C10.4719 20.028 12.7179 17.0526 15.4789 14.468C15.5995 14.3556 15.6273 14.2316 15.6316 14.0859C15.648 13.5229 15.6929 12.9641 15.7878 12.4061C16.1858 10.0609 17.4346 8.34576 19.4988 7.22253C20.3996 6.73228 21.3547 6.48212 22.3739 6.65154C24.1741 6.95073 25.749 7.72575 27.0535 9.02921C27.1812 9.15682 27.3017 9.19575 27.4907 9.18206C28.9864 9.07103 30.48 9.10996 31.9642 9.34355C32.1732 9.37671 32.298 9.32841 32.4507 9.16619C33.2103 8.36018 34.0733 7.6933 35.1268 7.32274C36.0797 6.9875 37.0176 7.01417 37.8115 7.69619C38.8656 8.60169 39.3927 9.80207 39.4612 11.1899C39.4769 11.5136 39.5696 11.665 39.8499 11.807C41.6723 12.7277 43.4611 13.7074 45.1472 14.8718C46.4596 15.778 47.2734 16.9293 47.1878 18.6106C47.165 19.0504 47.3397 19.4512 47.6158 19.8016C48.6036 21.0553 49.7955 22.1122 50.8839 23.2693C51.9552 24.4084 53.0857 25.4891 53.9394 26.8221C54.2026 27.2331 54.2426 27.6015 54.0193 28.0254C53.8481 28.3505 53.7219 28.6894 53.6563 29.0636C53.4837 30.0469 53.5072 31.0469 53.3781 32.0317C53.1627 33.6805 52.4523 35.0582 51.1264 36.0776C51.0044 36.1714 50.9638 36.242 50.9937 36.3999C51.0337 36.6097 51.0265 36.8296 51.0358 37.0451C51.1406 39.5295 50.0315 41.3384 47.9888 42.6231C47.3569 43.0203 46.6764 43.1061 45.9418 42.9929C44.3527 42.7478 42.9361 42.0925 41.6059 41.2115C41.0111 40.8178 40.3998 40.4487 39.7386 40.1798C39.1039 39.9217 38.6987 40.2144 38.6873 40.9109C38.6709 41.8928 39.0682 42.7485 39.5026 43.587C43.6955 51.6738 53.0639 52.1621 57.087 42.7572C58.4051 39.6759 59.052 36.4302 59.246 33.0814C59.4093 30.2589 59.1939 27.4681 58.5342 24.7307C56.9208 18.0381 53.4138 12.5791 47.9382 8.44813C43.3841 5.01211 38.2679 3.06844 32.5955 2.67192C29.99 2.48952 27.3966 2.66832 24.8517 3.26237C18.2142 4.81241 12.76 8.2888 8.56184 13.7154C5.02912 18.2811 3.15898 23.5166 2.67753 29.2705C2.5142 31.2242 2.56912 33.178 2.79807 35.1289C3.06269 37.3818 3.79395 39.7206 3.79395 39.7206C3.79395 39.7206 5.30919 37.9311 5.52078 35.8588ZM22.473 13.8595C22.8382 13.7521 23.1713 13.8314 23.4923 14.0225C23.8025 14.207 24.07 14.4385 24.3011 14.7189C24.8703 15.4089 25.2362 16.2084 25.5407 17.0418C25.6185 17.2538 25.6834 17.4708 25.7547 17.6856C25.5657 17.7454 25.3731 17.7937 25.1898 17.8673C25.0036 17.9415 24.8182 18.0244 24.6484 18.1304C23.9844 18.5428 23.4973 19.1253 23.1314 19.8124C22.5158 20.9681 22.1079 22.2009 21.8696 23.4878C21.7555 24.1027 21.7355 24.7307 21.7676 25.3673C22.324 24.2448 22.7548 23.0646 23.5793 21.9911C23.5686 22.1547 23.5736 22.216 23.5593 22.273C23.3346 23.1742 23.2733 24.0912 23.269 25.0169C23.2619 26.75 23.6442 28.3765 24.6584 29.791C26.1848 31.9192 28.281 33.227 30.7546 33.9516C31.0998 34.0525 31.4478 34.1448 31.8844 34.1239C30.5006 32.788 29.1362 31.5227 28.0464 29.9071C30.4443 30.739 32.8087 31.0627 35.2823 30.522C33.6625 29.0174 31.8708 27.7305 30.9486 25.5713C31.0377 25.6326 31.0698 25.6456 31.0905 25.6693C32.4057 27.1934 34.094 28.1407 35.9442 28.8091C36.4014 28.9742 36.6631 29.2207 36.8678 29.6504C37.432 30.8371 38.1873 31.868 39.392 32.4808C39.4134 32.4917 39.4191 32.5335 39.4327 32.5645C38.3763 32.7461 37.8778 33.2335 37.9035 34.126C37.9298 35.0467 38.305 35.8491 38.9099 36.5196C39.7044 37.4006 40.6309 38.1367 41.576 38.8461C42.8441 39.7977 44.1651 40.6592 45.6715 41.187C46.1179 41.3434 46.5694 41.386 47.0316 41.2468C48.6157 40.7703 49.819 38.9405 49.7498 37.1093C49.7263 36.4843 49.3868 36.0106 48.7905 35.8311C48.2042 35.6544 47.6129 35.6934 47.053 35.9371C46.3262 36.2535 45.6172 36.6119 44.8912 36.9291C44.2072 37.2283 43.5053 37.5397 42.7557 37.544C41.4982 37.5512 40.5418 36.8786 39.7215 35.9789C39.6281 35.8765 39.494 35.7431 39.5668 35.6054C39.6295 35.4857 39.8064 35.4778 39.9469 35.4684C40.5789 35.4266 41.1972 35.5139 41.8149 35.6501C42.5888 35.8203 43.3648 36.0221 44.1665 35.8498C45.8733 35.4836 47.3797 34.6711 48.809 33.6949C49.1457 33.4649 49.3418 33.1362 49.4017 32.7137C49.4845 32.1269 49.4588 31.5407 49.4588 30.9532C49.4588 30.6251 49.3425 30.4629 49.0194 30.3331C48.1514 29.9856 47.2813 29.6187 46.6286 28.8963C46.1372 28.352 46.0381 27.7363 46.3555 27.1386C46.849 27.5654 47.4432 27.5928 48.0373 27.5171C48.8055 27.4191 49.5615 27.4782 50.2905 27.6966C51.0023 27.91 51.6121 27.7522 52.2226 27.3967C52.4395 27.2706 52.4181 27.1985 52.2683 27.0348C50.3946 24.9909 48.5066 22.9629 46.4389 21.113C45.6465 20.4036 44.9175 19.6257 44.4982 18.6135C44.4561 18.5125 44.3441 18.408 44.4454 18.2508C44.4753 18.2912 44.4974 18.3186 44.5174 18.3482C44.6372 18.5277 44.7827 18.7699 44.9896 18.7151C45.1436 18.6747 45.1201 18.382 45.1451 18.196C45.1608 18.0792 45.1501 17.956 45.1337 17.8384C45.0359 17.1557 44.603 16.713 44.0781 16.3309C42.0517 14.8566 39.8956 13.618 37.5846 12.6585C35.3436 11.7277 33.0634 10.9635 30.6041 10.9138C30.0149 10.9015 29.4343 10.9613 28.8117 10.9642C29.2639 12.0694 29.2867 13.1516 29.0763 14.251C28.9907 14.1998 28.9493 14.1436 28.9144 14.0838C27.8096 12.1812 26.239 10.7314 24.4787 9.47908C23.6699 8.90377 22.7469 8.55339 21.7498 8.60458C20.3768 8.67451 19.2584 9.32552 18.5017 10.4711C17.4118 12.1199 17.3177 13.9172 17.9703 15.7614C18.5445 17.3842 19.6108 18.6308 20.9945 19.648C21.1714 19.0093 21.508 18.4512 21.9852 17.9661C21.0016 17.4477 20.262 16.6979 19.6229 15.8631C18.7242 14.6894 18.481 13.3534 18.9339 11.931C19.4995 10.1532 21.1357 9.56992 22.6678 10.5807C23.3411 11.0248 23.8988 11.5972 24.3617 12.2598C24.6591 12.6866 24.9323 13.1292 25.025 13.706C24.1135 13.1624 23.2726 13.2049 22.4723 13.8624L22.473 13.8595ZM15.735 41.6022C12.9326 40.8315 10.4655 37.6644 10.141 32.8651C10.0525 32.9458 10.0397 33.054 10.0197 33.1549C9.70375 34.7208 9.68948 36.2831 9.93127 37.8685C10.2572 40.0075 11.2807 41.696 12.9398 43.0218C13.827 43.7305 14.8234 44.264 15.7885 44.8479C17.5887 45.9358 19.3069 47.129 20.6222 48.8189C21.5865 50.0582 22.324 51.4056 22.5486 52.9968C22.575 53.1828 22.5037 53.3933 22.6635 53.6045C22.7398 53.4149 22.8068 53.265 22.861 53.1107C23.4595 51.3956 23.4402 49.6747 22.8232 47.9783C22.294 46.5227 21.9146 45.0584 22.1378 43.4889C22.2519 42.6844 22.4374 41.9072 22.8789 41.0983C22.9466 44.9734 24.9216 47.4304 28.1377 49.0222C27.0656 47.4606 26.545 45.703 26.2747 43.8509C26.1056 42.6923 25.9615 41.528 25.6178 40.4047C25.4309 39.7948 25.2133 39.195 25.0094 38.5901C25.8267 39.2707 26.5764 39.9931 27.107 40.9159C27.6469 41.8546 27.9579 42.887 28.266 43.9114C29.0763 46.607 30.6012 48.7382 32.9193 50.3221C34.41 51.3408 35.3814 52.792 35.9442 54.5165C36.1268 55.0767 36.2052 55.6599 36.238 56.254C36.7701 55.2007 37.0404 54.0804 37.1118 52.9211C37.2523 50.6342 36.6453 48.506 35.5897 46.5169C34.8636 45.1478 34.0084 43.8487 33.2188 42.5135C32.9549 42.0673 32.7146 41.6066 32.4635 41.1531C32.7181 43.5416 33.1996 45.8688 33.972 48.1859C33.7167 48.0302 33.5733 47.8413 33.4207 47.6618C32.3879 46.4455 31.7431 45.0073 31.1304 43.5524C30.6661 42.4501 30.1868 41.3607 29.5149 40.3637C28.3024 38.5649 26.7019 37.1526 25.0764 35.7633C24.0308 34.8701 23.013 33.9429 22.1906 32.8334C21.2541 31.5696 20.4702 30.2156 20.1807 28.6202C20.1386 28.649 20.1065 28.6584 20.1036 28.6735C19.9196 29.6944 19.8697 30.7174 20.0344 31.7484C20.2313 32.979 20.6407 34.1513 20.9631 35.348C21.1471 36.0308 21.3397 36.7135 21.3568 37.4582C21.3083 37.42 21.2841 37.4099 21.2762 37.3934C20.6036 35.8253 19.6714 34.4094 18.7449 32.9898C17.2492 30.6987 16.327 28.2107 16.1986 25.4444C16.1736 24.9015 16.1558 24.358 16.1551 23.7624C14.8634 25.4084 14.5581 27.2374 14.8534 29.295C14.3406 28.7283 14.0046 28.1602 13.7971 27.5215C13.2736 25.9159 13.337 24.2938 13.6915 22.6659C13.8142 22.1021 13.9989 21.5549 14.1473 20.9919C13.7614 21.3581 13.4376 21.7676 13.1316 22.1908C11.8435 23.9751 11.2322 25.9772 11.4619 28.171C11.6852 30.3072 12.8164 31.9971 14.3484 33.4195C15.0824 34.1008 15.9005 34.6898 16.6301 35.3754C18.5438 37.172 19.6742 39.3067 19.2848 42.0471C19.2035 42.6209 19.058 43.1753 18.6771 43.6807C18.3219 40.1849 16.317 37.8144 13.6009 35.9053C13.5959 35.9551 13.5817 35.9926 13.5902 36.025C14.0852 37.9521 14.8092 39.7905 15.7336 41.6044L15.735 41.6022ZM52.2319 30.1197C51.6799 30.3995 51.2455 30.7657 50.7919 31.101C50.7462 31.1348 50.6984 31.1831 50.6799 31.235C50.4024 32.0238 50.1678 32.824 50.182 33.6711C50.1856 33.8766 50.2063 34.1347 50.4388 34.2226C50.6649 34.3077 50.8397 34.134 51.0073 34.0013C51.0629 33.9573 51.1135 33.9054 51.1606 33.8514C52.08 32.7858 52.304 31.5205 52.2312 30.119L52.2319 30.1197Z" fill="black"/>
<path d="M39.1887 16.8789C39.8685 17.7686 40.4918 18.6798 40.464 19.8694C40.4583 20.108 40.4605 20.3589 40.3884 20.581C40.2893 20.8859 40.4248 21.0784 40.5988 21.281C41.5082 22.3408 42.4069 23.41 43.0995 24.6348C43.1501 24.7242 43.2428 24.7956 43.2321 24.9686C41.4968 23.7091 39.7137 22.6119 37.5048 22.4042C38.0711 21.8541 38.3528 21.2385 38.2173 20.3726C38.0582 20.666 37.9684 20.891 37.7936 21.0647C37.305 21.5521 36.6068 21.5586 36.1118 21.0799C35.8086 20.7872 35.6204 20.4123 35.35 20.0842C35.1482 20.9277 35.728 21.4836 36.1253 22.1656C35.3179 21.7748 34.5619 21.356 34.0947 20.6184C33.7616 20.0929 33.3116 19.9552 32.7759 19.8946C32.4279 19.855 32.0791 19.816 31.7182 19.7115C32.1368 19.594 32.5577 19.4822 32.9749 19.3582C33.7438 19.129 34.5184 18.9149 35.2758 18.6532C36.5626 18.2083 37.7687 18.4513 38.9455 19.0273C39.3029 19.2018 39.3071 19.2032 39.315 18.7815C39.3264 18.1463 39.3114 17.5141 39.1894 16.8796L39.1887 16.8789Z" fill="black"/>
<path d="M75.3038 10.1804H79.0511V22.6689H86.724V25.8802H75.3038V10.1804Z" fill="black"/>
<path d="M99.5755 19.636C99.5755 19.9705 99.5532 20.5503 99.5086 20.8848H90.9658C91.2111 22.379 92.2149 23.3825 93.7093 23.3825C94.8245 23.3825 95.516 22.825 95.806 21.9552H99.3525C98.8841 24.1853 97.055 26.237 93.7316 26.237C89.6275 26.237 87.4416 23.4717 87.4416 19.9928C87.4416 16.3354 89.7167 13.7486 93.6647 13.7486C96.6536 13.7486 99.5755 15.5772 99.5755 19.636ZM93.7316 16.5139C92.0364 16.5139 91.3227 17.4728 91.055 18.7439H96.0736C95.9398 17.3167 95.0476 16.5139 93.7316 16.5139Z" fill="black"/>
<path d="M106.626 13.7486C110.507 13.7486 112.871 16.5585 112.871 19.9928C112.871 23.4271 110.507 26.237 106.626 26.237C102.745 26.237 100.38 23.4271 100.38 19.9928C100.38 16.5585 102.745 13.7486 106.626 13.7486ZM106.626 23.2041C108.388 23.2041 109.302 21.7322 109.302 19.9928C109.302 18.2533 108.388 16.7815 106.626 16.7815C104.864 16.7815 103.949 18.2533 103.949 19.9928C103.949 21.7322 104.864 23.2041 106.626 23.2041Z" fill="black"/>
<path d="M121.485 13.7486C124.027 13.7486 125.723 15.3988 125.723 18.7439V25.8802H122.154V20.1712C122.154 17.5174 121.552 16.7815 120.28 16.7815C118.83 16.7815 117.514 18.6324 117.514 21.3531V25.8802H113.946V14.1054H117.514V14.6629C117.514 15.1981 117.403 15.5772 117.224 15.934C117.046 16.2908 116.823 16.7369 117.113 16.8484C117.38 16.9599 117.492 16.6923 117.581 16.5139C118.139 15.3319 119.455 13.7486 121.485 13.7486Z" fill="black"/>
<path d="M135.193 16.9599H131.981V21.866C131.981 22.9811 132.026 23.0257 133.052 23.0257H135.193V25.8802H131.892C129.527 25.8802 128.412 25.0997 128.412 22.2675V16.9599H126.271V14.1054H128.412V10.894H131.981V14.1054H135.193V16.9599Z" fill="black"/>
<path d="M135.542 14.1054H139.334L141.475 21.0855C141.609 21.5315 141.653 21.9329 141.653 22.3344C141.653 22.5574 141.698 22.8027 142.01 22.8027C142.323 22.8027 142.345 22.5574 142.367 22.3344C142.412 21.9329 142.434 21.5315 142.568 21.0855L144.598 14.1054H148.39L143.393 27.2405C142.59 29.3368 141.475 30.1619 139.423 30.1619H136.568V27.3074H137.549C139.244 27.3074 139.579 27.3966 139.981 26.4154L140.114 26.0809L135.542 14.1054Z" fill="black"/>
<path d="M74.5901 40.3311C74.5901 35.8041 77.3336 32.1244 82.5306 32.1244C87.4601 32.1244 89.6683 35.4472 89.9359 38.4132H86.211C85.9879 37.0529 84.9396 35.3357 82.5753 35.3357C79.921 35.3357 78.3373 37.5658 78.3373 40.3311C78.3373 43.0964 79.921 45.3265 82.5753 45.3265C84.9396 45.3265 85.9879 43.6093 86.211 42.249H89.9359C89.6683 45.215 87.4601 48.5378 82.5306 48.5378C77.3336 48.5378 74.5901 44.8582 74.5901 40.3311Z" fill="black"/>
<path d="M96.889 36.0494C100.77 36.0494 103.134 38.8593 103.134 42.2936C103.134 45.7279 100.77 48.5378 96.889 48.5378C93.0079 48.5378 90.6436 45.7279 90.6436 42.2936C90.6436 38.8593 93.0079 36.0494 96.889 36.0494ZM96.889 45.5049C98.6511 45.5049 99.5656 44.0331 99.5656 42.2936C99.5656 40.5541 98.6511 39.0823 96.889 39.0823C95.1269 39.0823 94.2124 40.5541 94.2124 42.2936C94.2124 44.0331 95.1269 45.5049 96.889 45.5049Z" fill="black"/>
<path d="M111.748 36.0494C114.291 36.0494 115.986 37.6996 115.986 41.0447V48.181H112.417V42.472C112.417 39.8182 111.815 39.0823 110.543 39.0823C109.094 39.0823 107.778 40.9332 107.778 43.6539V48.181H104.209V36.4062H107.778V36.9637C107.778 37.4989 107.666 37.878 107.488 38.2348C107.309 38.5917 107.086 39.0377 107.376 39.1492C107.644 39.2607 107.755 38.9931 107.845 38.8147C108.402 37.6327 109.718 36.0494 111.748 36.0494Z" fill="black"/>
<path d="M117.065 44.0777H120.59C120.612 44.992 121.147 45.8617 122.842 45.8617C124.381 45.8617 124.917 45.3934 124.917 44.7913C124.917 44.0777 123.846 43.8769 121.861 43.6539C117.757 43.1856 117.422 41.1116 117.422 39.8851C117.422 37.9003 119.296 36.0494 122.82 36.0494C125.653 36.0494 127.95 37.3428 128.129 40.1527H124.605C124.56 39.283 124.047 38.7255 122.753 38.7255C121.482 38.7255 120.991 39.1492 120.991 39.729C120.991 40.1304 121.236 40.5095 123.177 40.6879C126.434 41.0001 128.486 42.026 128.486 44.5683C128.486 46.8207 126.344 48.5378 122.753 48.5378C119.14 48.5378 117.222 46.843 117.065 44.0777Z" fill="black"/>
<path d="M133.793 48.5378C131.25 48.5378 129.555 46.8876 129.555 43.5424V36.4062H133.124V42.1152C133.124 44.769 133.726 45.5049 134.997 45.5049C136.447 45.5049 137.763 43.6539 137.763 40.9332V36.4062H141.332V48.181H137.763V47.6235C137.763 47.0883 137.875 46.7092 138.053 46.3523C138.232 45.9955 138.455 45.5495 138.165 45.438C137.897 45.3265 137.786 45.5941 137.696 45.7725C137.116 46.9322 135.823 48.5378 133.793 48.5378Z" fill="black"/>
<path d="M143.308 32.1244H146.877V48.181H143.308V32.1244Z" fill="black"/>
<path d="M156.518 39.2607H153.306V44.1669C153.306 45.2819 153.35 45.3265 154.377 45.3265H156.518V48.181H153.217C150.852 48.181 149.737 47.4005 149.737 44.5683V39.2607H147.596V36.4062H149.737V33.1949H153.306V36.4062H156.518V39.2607Z" fill="black"/>
<path d="M158.12 34.9789V32.1244H161.689V34.9789H158.12ZM158.12 48.181V36.4062H161.689V48.181H158.12Z" fill="black"/>
<path d="M171.192 36.0494C173.734 36.0494 175.43 37.6996 175.43 41.0447V48.181H171.861V42.472C171.861 39.8182 171.259 39.0823 169.987 39.0823C168.537 39.0823 167.221 40.9332 167.221 43.6539V48.181H163.653V36.4062H167.221V36.9637C167.221 37.4989 167.11 37.878 166.931 38.2348C166.753 38.5917 166.53 39.0377 166.82 39.1492C167.088 39.2607 167.199 38.9931 167.288 38.8147C167.846 37.6327 169.162 36.0494 171.192 36.0494Z" fill="black"/>
<path d="M176.509 42.026C176.509 38.5917 178.405 36.0494 181.639 36.0494C183.424 36.0494 184.606 36.986 185.342 38.324C185.409 38.4355 185.498 38.6363 185.699 38.5917C186.033 38.5025 185.855 38.1233 185.677 37.7442C185.52 37.432 185.431 37.0975 185.431 36.763V36.4062H189V47.3782C189 51.0801 186.546 52.8196 182.822 52.8196C179.119 52.8196 177.201 51.37 176.866 48.7162H180.346C180.524 49.586 181.171 50.1435 182.822 50.1435C184.94 50.1435 185.431 49.0061 185.431 47.5789C185.431 47.2444 185.52 46.9322 185.699 46.6199C185.922 46.2185 186.078 45.884 185.788 45.7725C185.543 45.6833 185.431 45.884 185.342 46.0401C184.606 47.3782 183.401 48.0026 181.639 48.0026C178.405 48.0026 176.509 45.4603 176.509 42.026ZM182.665 44.9697C184.361 44.9697 185.431 43.6093 185.431 42.026C185.431 40.4426 184.361 39.0823 182.665 39.0823C180.881 39.0823 180.078 40.4426 180.078 42.026C180.078 43.6093 180.881 44.9697 182.665 44.9697Z" fill="black"/>
</svg>
