<svg width="189" height="56" viewBox="0 0 189 56" fill="none" xmlns="http://www.w3.org/2000/svg">
<path d="M54.9966 28.0736C55.0416 34.1446 53.2252 39.79 49.5126 44.7717C45.5034 50.1519 40.2501 53.6862 33.7546 55.2752C31.5636 55.8108 29.3302 56.0441 27.0778 55.98C20.9309 55.8063 15.3556 53.9296 10.5054 50.068C5.69125 46.2358 2.50846 41.2855 0.918965 35.3011C0.204073 32.6094 -0.0722507 29.8664 0.0158432 27.0786C0.162878 22.4224 1.34296 18.0629 3.63087 14.018C6.67043 8.64545 11.0542 4.78954 16.639 2.30095C18.7634 1.35395 20.9752 0.693996 23.2651 0.330703C25.1435 0.0327635 27.0347 -0.0659088 28.9411 0.0430152C33.0726 0.278804 36.9634 1.37894 40.567 3.41069C47.1278 7.10962 51.625 12.5501 53.8514 19.8448C54.3857 21.5952 54.7222 23.3906 54.899 25.2121C54.9859 26.1034 55.0087 27.0017 54.9973 28.073L54.9966 28.0736ZM5.2755 32.9246C5.14431 30.757 5.35345 28.6253 5.79519 26.5122C6.20967 24.5278 6.93914 22.6537 7.82452 20.8372C9.30501 17.7996 11.3007 15.1553 13.7541 12.8582C13.8612 12.7583 13.8859 12.6481 13.8897 12.5187C13.9043 12.0182 13.9442 11.5217 14.0285 11.0258C14.3821 8.94147 15.4919 7.41717 17.326 6.41891C18.1264 5.98322 18.9751 5.76089 19.8807 5.91146C21.4804 6.17736 22.8797 6.86614 24.0389 8.02458C24.1523 8.13799 24.2594 8.17259 24.4274 8.16042C25.7564 8.06174 27.0835 8.09634 28.4024 8.30394C28.5881 8.33341 28.699 8.29049 28.8346 8.14632C29.5096 7.42999 30.2764 6.83731 31.2125 6.50798C32.0592 6.21004 32.8926 6.23374 33.598 6.83987C34.5347 7.64463 35.0031 8.71144 35.0639 9.94485C35.0779 10.2325 35.1603 10.3671 35.4093 10.4933C37.0286 11.3115 38.6181 12.1823 40.1164 13.2171C41.2825 14.0225 42.0056 15.0457 41.9296 16.5399C41.9093 16.9307 42.0646 17.287 42.3098 17.5984C43.1876 18.7126 44.2466 19.6519 45.2138 20.6803C46.1657 21.6926 47.1702 22.6531 47.9288 23.8378C48.1627 24.203 48.1982 24.5304 47.9998 24.9072C47.8477 25.1961 47.7355 25.4973 47.6772 25.8298C47.5239 26.7038 47.5448 27.5925 47.4301 28.4677C47.2387 29.933 46.6074 31.1575 45.4292 32.0635C45.3209 32.1468 45.2847 32.2096 45.3114 32.3499C45.3469 32.5363 45.3405 32.7318 45.3488 32.9233C45.4419 35.1313 44.4564 36.7389 42.6413 37.8807C42.0798 38.2337 41.4752 38.3099 40.8224 38.2094C39.4103 37.9915 38.1517 37.4091 36.9697 36.6261C36.4411 36.2763 35.898 35.9482 35.3105 35.7092C34.7464 35.4798 34.3864 35.74 34.3763 36.3589C34.3617 37.2316 34.7147 37.9921 35.1007 38.7373C35.6248 39.7484 36.2979 40.6653 36.9158 41.6174C38.5871 44.1899 39.2544 46.9559 38.4983 49.9994C38.3893 50.437 38.2233 50.8567 38.0858 51.3289C38.2429 51.2546 38.3564 51.2033 38.4686 51.147C44.1566 48.2919 48.214 43.874 50.7257 37.9998C51.8969 35.2614 52.4717 32.3768 52.6441 29.4006C52.7892 26.8921 52.5978 24.4119 52.0116 21.979C50.578 16.0311 47.4617 11.1795 42.5963 7.50815C38.5497 4.45444 34.0036 2.72703 28.9633 2.37463C26.6481 2.21253 24.3437 2.37143 22.0824 2.89939C16.1846 4.27696 11.3381 7.36655 7.60777 12.1893C4.46871 16.2471 2.80697 20.9 2.37917 26.0137C2.23404 27.7501 2.28284 29.4865 2.48628 31.2203C2.72141 33.2225 3.86219 37.0599 3.86219 37.0599C3.86219 37.0599 5.45613 35.9091 5.2755 32.9246ZM19.9688 12.3175C20.2933 12.222 20.5893 12.2925 20.8745 12.4623C21.1502 12.6263 21.3878 12.832 21.5932 13.0812C22.0989 13.6944 22.424 14.405 22.6947 15.1456C22.7637 15.334 22.8214 15.5269 22.8848 15.7178C22.7168 15.771 22.5457 15.8139 22.3828 15.8793C22.2174 15.9453 22.0526 16.019 21.9018 16.1131C21.3118 16.4796 20.8789 16.9974 20.5538 17.608C20.0068 18.6351 19.6443 19.7307 19.4326 20.8744C19.3312 21.421 19.3135 21.979 19.342 22.5448C19.8364 21.5472 20.2192 20.4983 20.9518 19.5443C20.9423 19.6897 20.9467 19.7442 20.934 19.7948C20.7344 20.5957 20.6799 21.4107 20.6761 22.2334C20.6698 23.7737 21.0095 25.2192 21.9107 26.4763C23.267 28.3677 25.1296 29.53 27.3275 30.174C27.6343 30.2637 27.9435 30.3457 28.3314 30.3271C27.1019 29.1398 25.8895 28.0153 24.9211 26.5795C27.0518 27.3189 29.1528 27.6066 31.3507 27.126C29.9114 25.7888 28.3194 24.6451 27.4999 22.7261C27.5791 22.7806 27.6076 22.7921 27.626 22.8133C28.7947 24.1678 30.2948 25.0097 31.9388 25.6036C32.3451 25.7504 32.5777 25.9695 32.7596 26.3514C33.2609 27.406 33.932 28.3223 35.0025 28.8669C35.0215 28.8765 35.0266 28.9136 35.0386 28.9412C34.1 29.1027 33.657 29.5358 33.6798 30.329C33.7032 31.1472 34.0366 31.8604 34.574 32.4562C35.2801 33.2392 36.1033 33.8934 36.9431 34.5239C38.0699 35.3696 39.2437 36.1353 40.5822 36.6043C40.9789 36.7434 41.3801 36.7812 41.7908 36.6575C43.1984 36.234 44.2675 34.6078 44.2061 32.9804C44.1852 32.4248 43.8835 32.0039 43.3536 31.8443C42.8327 31.6874 42.3073 31.722 41.8098 31.9385C41.164 32.2198 40.534 32.5382 39.8888 32.8202C39.281 33.0861 38.6574 33.3629 37.9913 33.3667C36.874 33.3731 36.0241 32.7753 35.2953 31.9757C35.2122 31.8847 35.0931 31.7662 35.1577 31.6438C35.2135 31.5374 35.3707 31.5304 35.4955 31.5221C36.0571 31.4849 36.6065 31.5624 37.1554 31.6835C37.843 31.8347 38.5326 32.0141 39.2449 31.861C40.7615 31.5355 42.1001 30.8134 43.3701 29.9459C43.6693 29.7415 43.8436 29.4493 43.8968 29.0738C43.9703 28.5523 43.9475 28.0314 43.9475 27.5092C43.9475 27.2176 43.8442 27.0735 43.5571 26.9581C42.7858 26.6493 42.0126 26.3232 41.4327 25.6812C40.996 25.1974 40.9079 24.6502 41.19 24.1191C41.6285 24.4984 42.1565 24.5227 42.6844 24.4554C43.367 24.3683 44.0388 24.4209 44.6865 24.615C45.319 24.8046 45.8608 24.6643 46.4034 24.3484C46.596 24.2363 46.577 24.1722 46.4439 24.0268C44.779 22.2103 43.1014 20.408 41.2641 18.7638C40.56 18.1334 39.9123 17.442 39.5396 16.5424C39.5022 16.4527 39.4027 16.3598 39.4927 16.2202C39.5193 16.256 39.539 16.2804 39.5567 16.3067C39.6632 16.4662 39.7925 16.6815 39.9763 16.6328C40.1132 16.5969 40.0923 16.3368 40.1145 16.1715C40.1284 16.0677 40.1189 15.9581 40.1043 15.8537C40.0175 15.2469 39.6328 14.8535 39.1663 14.5139C37.3658 13.2036 35.4499 12.1028 33.3965 11.25C31.4052 10.4228 29.379 9.74366 27.1938 9.69945C26.6703 9.68856 26.1544 9.74174 25.6011 9.7443C26.0029 10.7265 26.0232 11.6883 25.8363 12.6654C25.7602 12.6199 25.7234 12.5699 25.6924 12.5167C24.7107 10.8259 23.3151 9.53734 21.751 8.4244C21.0323 7.91309 20.2122 7.6017 19.3262 7.64719C18.1062 7.70934 17.1124 8.28792 16.44 9.30604C15.4716 10.7714 15.3879 12.3687 15.9678 14.0077C16.478 15.45 17.4255 16.5578 18.655 17.4619C18.8122 16.8942 19.1113 16.3983 19.5353 15.9671C18.6613 15.5064 18.0041 14.84 17.4363 14.0981C16.6377 13.0549 16.4216 11.8677 16.824 10.6035C17.3266 9.02348 18.7805 8.50513 20.1418 9.40343C20.7401 9.79812 21.2357 10.3069 21.647 10.8957C21.9113 11.275 22.1541 11.6684 22.2364 12.181C21.4265 11.6979 20.6793 11.7357 19.9682 12.32L19.9688 12.3175ZM13.9816 36.9734C11.4915 36.2884 9.2993 33.4737 9.01094 29.2084C8.93235 29.2801 8.92094 29.3763 8.9032 29.466C8.62244 30.8576 8.60976 32.2461 8.82461 33.655C9.11424 35.5561 10.0237 37.0567 11.4978 38.235C12.2863 38.8648 13.1716 39.339 14.0291 39.8579C15.6288 40.8248 17.1555 41.8852 18.3242 43.3871C19.181 44.4885 19.8364 45.686 20.036 47.1001C20.0594 47.2654 19.9961 47.4525 20.138 47.6402C20.2058 47.4717 20.2654 47.3385 20.3136 47.2013C20.8453 45.677 20.8282 44.1476 20.28 42.64C19.8097 41.3464 19.4726 40.045 19.6709 38.6502C19.7723 37.9351 19.9371 37.2444 20.3294 36.5255C20.3896 39.9694 22.1445 42.153 25.0022 43.5678C24.0497 42.1799 23.587 40.6178 23.3468 38.9718C23.1966 37.9422 23.0686 36.9074 22.7631 35.9091C22.5971 35.3671 22.4038 34.834 22.2225 34.2964C22.9488 34.9013 23.6149 35.5433 24.0864 36.3634C24.5662 37.1976 24.8425 38.1152 25.1163 39.0256C25.8363 41.4213 27.1913 43.3153 29.251 44.723C30.5756 45.6284 31.4388 46.9181 31.9388 48.4508C32.1011 48.9486 32.1708 49.467 32.1999 49.9949C32.6727 49.0588 32.9129 48.0631 32.9763 47.0328C33.1012 45.0004 32.5618 43.109 31.6238 41.3412C30.9787 40.1245 30.2188 38.9699 29.5172 37.7833C29.2827 37.3867 29.0691 36.9772 28.846 36.5742C29.0723 38.6969 29.5001 40.7652 30.1864 42.8245C29.9596 42.6861 29.8322 42.5182 29.6965 42.3587C28.7788 41.2778 28.2059 39.9995 27.6615 38.7066C27.2489 37.7269 26.823 36.7587 26.226 35.8726C25.1486 34.274 23.7264 33.0188 22.2821 31.7841C21.353 30.9902 20.4486 30.1663 19.7178 29.1802C18.8857 28.057 18.1892 26.8537 17.9319 25.4358C17.8945 25.4614 17.866 25.4697 17.8634 25.4832C17.6999 26.3905 17.6556 27.2996 17.802 28.2159C17.9769 29.3096 18.3407 30.3514 18.6271 31.4151C18.7906 32.0218 18.9618 32.6286 18.977 33.2905C18.9339 33.2565 18.9123 33.2475 18.9053 33.2328C18.3077 31.8392 17.4794 30.5808 16.6561 29.3192C15.3271 27.283 14.5076 25.0718 14.3935 22.6134C14.3714 22.1309 14.3555 21.6478 14.3549 21.1185C13.2071 22.5813 12.9359 24.2068 13.1983 26.0355C12.7426 25.5319 12.4441 25.027 12.2596 24.4593C11.7945 23.0324 11.8509 21.5907 12.1658 20.144C12.2749 19.6429 12.439 19.1566 12.5708 18.6562C12.228 18.9817 11.9402 19.3456 11.6683 19.7217C10.5237 21.3075 9.9806 23.0868 10.1847 25.0366C10.383 26.9351 11.3882 28.4369 12.7495 29.7011C13.4017 30.3066 14.1286 30.8301 14.777 31.4394C16.4774 33.0361 17.4819 34.9333 17.1359 37.3687C17.0636 37.8787 16.9343 38.3715 16.5959 38.8206C16.2803 35.7137 14.4987 33.607 12.0854 31.9103C12.0809 31.9545 12.0682 31.9879 12.0758 32.0167C12.5157 33.7294 13.159 35.3632 13.9803 36.9753L13.9816 36.9734ZM34.8485 50.9714C36.7967 48.4296 36.7143 45.3214 34.8535 43.1154C35.3682 45.7187 35.7966 48.3418 34.8485 50.9714ZM46.4116 26.7685C45.9211 27.0171 45.5351 27.3426 45.132 27.6405C45.0914 27.6706 45.049 27.7136 45.0325 27.7597C44.786 28.4606 44.5775 29.1719 44.5901 29.9247C44.5933 30.1073 44.6117 30.3367 44.8183 30.4149C45.0192 30.4905 45.1745 30.3361 45.3234 30.2182C45.3728 30.1791 45.4178 30.133 45.4597 30.0849C46.2766 29.1379 46.4756 28.0134 46.411 26.7678L46.4116 26.7685ZM28.5551 52.718C29.4836 51.0976 28.2972 47.9279 26.5239 47.2398C27.7166 48.8692 28.5659 50.6043 28.5551 52.718Z" fill="black"/>
<path d="M34.8218 15.0009C35.4258 15.7915 35.9797 16.6014 35.955 17.6586C35.95 17.8707 35.9519 18.0937 35.8878 18.291C35.7997 18.5621 35.9202 18.7331 36.0748 18.9132C36.8829 19.855 37.6814 20.8053 38.2968 21.8939C38.3418 21.9733 38.4242 22.0367 38.4147 22.1905C36.8727 21.0712 35.2883 20.096 33.3255 19.9114C33.8287 19.4226 34.0791 18.8754 33.9586 18.1059C33.8173 18.3666 33.7375 18.5665 33.5822 18.721C33.1481 19.1541 32.5276 19.1599 32.0878 18.7344C31.8184 18.4743 31.6511 18.1411 31.4109 17.8496C31.2315 18.5992 31.7468 19.0932 32.0998 19.6994C31.3824 19.3521 30.7106 18.9798 30.2955 18.3243C29.9995 17.8573 29.5996 17.7349 29.1236 17.6811C28.8143 17.6458 28.5044 17.6112 28.1837 17.5183C28.5558 17.4139 28.9297 17.3146 29.3004 17.2044C29.9836 17.0006 30.6719 16.8103 31.345 16.5777C32.4883 16.1824 33.56 16.3983 34.6057 16.9103C34.9232 17.0653 34.927 17.0666 34.934 16.6918C34.9442 16.1273 34.9309 15.5654 34.8225 15.0015L34.8218 15.0009Z" fill="black"/>
<path d="M71.7361 6.00293H75.6009V18.8854H83.5144V22.1981H71.7361V6.00293Z" fill="black"/>
<path d="M96.7689 15.7568C96.7689 16.1019 96.7459 16.7 96.6999 17.0451H87.8892C88.1423 18.5864 89.1775 19.6216 90.7188 19.6216C91.869 19.6216 92.5821 19.0464 92.8812 18.1493H96.5389C96.0558 20.4497 94.1694 22.5661 90.7418 22.5661C86.5089 22.5661 84.2545 19.7136 84.2545 16.1249C84.2545 12.3522 86.601 9.68364 90.6727 9.68364C93.7553 9.68364 96.7689 11.57 96.7689 15.7568ZM90.7418 12.5362C88.9934 12.5362 88.2573 13.5254 87.9812 14.8366H93.1572C93.0192 13.3643 92.099 12.5362 90.7418 12.5362Z" fill="black"/>
<path d="M104.04 9.68364C108.043 9.68364 110.481 12.5822 110.481 16.1249C110.481 19.6676 108.043 22.5661 104.04 22.5661C100.037 22.5661 97.5989 19.6676 97.5989 16.1249C97.5989 12.5822 100.037 9.68364 104.04 9.68364ZM104.04 19.4375C105.857 19.4375 106.801 17.9192 106.801 16.1249C106.801 14.3305 105.857 12.8122 104.04 12.8122C102.223 12.8122 101.28 14.3305 101.28 16.1249C101.28 17.9192 102.223 19.4375 104.04 19.4375Z" fill="black"/>
<path d="M119.365 9.68364C121.988 9.68364 123.736 11.386 123.736 14.8366V22.1981H120.055V16.3089C120.055 13.5714 119.434 12.8122 118.123 12.8122C116.627 12.8122 115.27 14.7216 115.27 17.5282V22.1981H111.59V10.0517H115.27V10.6268C115.27 11.1789 115.155 11.57 114.971 11.9381C114.787 12.3061 114.557 12.7662 114.856 12.8813C115.132 12.9963 115.247 12.7202 115.339 12.5362C115.914 11.317 117.272 9.68364 119.365 9.68364Z" fill="black"/>
<path d="M133.503 12.9963H130.191V18.0573C130.191 19.2075 130.237 19.2535 131.295 19.2535H133.503V22.1981H130.099C127.66 22.1981 126.51 21.3929 126.51 18.4713V12.9963H124.301V10.0517H126.51V6.73907H130.191V10.0517H133.503V12.9963Z" fill="black"/>
<path d="M133.863 10.0517H137.774L139.982 17.2521C140.12 17.7122 140.166 18.1263 140.166 18.5403C140.166 18.7704 140.212 19.0234 140.534 19.0234C140.856 19.0234 140.879 18.7704 140.902 18.5403C140.948 18.1263 140.971 17.7122 141.109 17.2521L143.203 10.0517H147.114L141.961 23.6013C141.132 25.7637 139.982 26.6149 137.866 26.6149H134.921V23.6703H135.933C137.682 23.6703 138.027 23.7624 138.441 22.7502L138.579 22.4051L133.863 10.0517Z" fill="black"/>
<path d="M71 37.1049C71 32.435 73.8295 28.6393 79.1896 28.6393C84.2736 28.6393 86.551 32.0669 86.827 35.1265H82.9853C82.7553 33.7233 81.6741 31.9519 79.2356 31.9519C76.4981 31.9519 74.8647 34.2524 74.8647 37.1049C74.8647 39.9575 76.4981 42.2579 79.2356 42.2579C81.6741 42.2579 82.7553 40.4866 82.9853 39.0833H86.827C86.551 42.1429 84.2736 45.5706 79.1896 45.5706C73.8295 45.5706 71 41.7748 71 37.1049Z" fill="black"/>
<path d="M93.9981 32.6881C98.0009 32.6881 100.439 35.5866 100.439 39.1293C100.439 42.672 98.0009 45.5706 93.9981 45.5706C89.9954 45.5706 87.5569 42.672 87.5569 39.1293C87.5569 35.5866 89.9954 32.6881 93.9981 32.6881ZM93.9981 42.442C95.8155 42.442 96.7587 40.9237 96.7587 39.1293C96.7587 37.335 95.8155 35.8167 93.9981 35.8167C92.1808 35.8167 91.2376 37.335 91.2376 39.1293C91.2376 40.9237 92.1808 42.442 93.9981 42.442Z" fill="black"/>
<path d="M109.323 32.6881C111.946 32.6881 113.694 34.3904 113.694 37.8411V45.2025H110.013V39.3133C110.013 36.5758 109.392 35.8167 108.081 35.8167C106.586 35.8167 105.228 37.726 105.228 40.5326V45.2025H101.548V33.0561H105.228V33.6313C105.228 34.1834 105.113 34.5744 104.929 34.9425C104.745 35.3106 104.515 35.7707 104.814 35.8857C105.09 36.0007 105.205 35.7247 105.297 35.5406C105.872 34.3214 107.23 32.6881 109.323 32.6881Z" fill="black"/>
<path d="M114.807 40.9697H118.442C118.465 41.9128 119.017 42.81 120.765 42.81C122.353 42.81 122.905 42.3269 122.905 41.7058C122.905 40.9697 121.801 40.7626 119.753 40.5326C115.52 40.0495 115.175 37.9101 115.175 36.6448C115.175 34.5974 117.108 32.6881 120.742 32.6881C123.664 32.6881 126.033 34.0223 126.217 36.9209H122.583C122.537 36.0237 122.008 35.4486 120.673 35.4486C119.362 35.4486 118.856 35.8857 118.856 36.4838C118.856 36.8979 119.109 37.289 121.11 37.473C124.469 37.7951 126.586 38.8533 126.586 41.4758C126.586 43.7992 124.377 45.5706 120.673 45.5706C116.947 45.5706 114.968 43.8222 114.807 40.9697Z" fill="black"/>
<path d="M132.059 45.5706C129.437 45.5706 127.688 43.8682 127.688 40.4176V33.0561H131.369V38.9453C131.369 41.6828 131.99 42.442 133.302 42.442C134.797 42.442 136.154 40.5326 136.154 37.726V33.0561H139.835V45.2025H136.154V44.6274C136.154 44.0753 136.269 43.6842 136.453 43.3161C136.637 42.9481 136.867 42.488 136.568 42.3729C136.292 42.2579 136.177 42.534 136.085 42.718C135.487 43.9142 134.153 45.5706 132.059 45.5706Z" fill="black"/>
<path d="M141.873 28.6393H145.553V45.2025H141.873V28.6393Z" fill="black"/>
<path d="M155.497 36.0007H152.184V41.0617C152.184 42.2119 152.23 42.2579 153.288 42.2579H155.497V45.2025H152.092C149.654 45.2025 148.503 44.3973 148.503 41.4758V36.0007H146.295V33.0561H148.503V29.7435H152.184V33.0561H155.497V36.0007Z" fill="black"/>
<path d="M157.149 31.5839V28.6393H160.83V31.5839H157.149ZM157.149 45.2025V33.0561H160.83V45.2025H157.149Z" fill="black"/>
<path d="M170.631 32.6881C173.253 32.6881 175.002 34.3904 175.002 37.8411V45.2025H171.321V39.3133C171.321 36.5758 170.7 35.8167 169.389 35.8167C167.893 35.8167 166.536 37.726 166.536 40.5326V45.2025H162.855V33.0561H166.536V33.6313C166.536 34.1834 166.421 34.5744 166.237 34.9425C166.053 35.3106 165.823 35.7707 166.122 35.8857C166.398 36.0007 166.513 35.7247 166.605 35.5406C167.18 34.3214 168.537 32.6881 170.631 32.6881Z" fill="black"/>
<path d="M176.115 38.8533C176.115 35.3106 178.07 32.6881 181.406 32.6881C183.246 32.6881 184.466 33.6543 185.225 35.0345C185.294 35.1495 185.386 35.3566 185.593 35.3106C185.938 35.2186 185.754 34.8275 185.57 34.4364C185.409 34.1143 185.317 33.7693 185.317 33.4242V33.0561H188.997V44.3743C188.997 48.1931 186.467 49.9874 182.625 49.9874C178.806 49.9874 176.828 48.4921 176.483 45.7546H180.072C180.256 46.6518 180.923 47.2269 182.625 47.2269C184.811 47.2269 185.317 46.0536 185.317 44.5814C185.317 44.2363 185.409 43.9142 185.593 43.5922C185.823 43.1781 185.984 42.833 185.685 42.718C185.432 42.626 185.317 42.833 185.225 42.9941C184.466 44.3743 183.223 45.0184 181.406 45.0184C178.07 45.0184 176.115 42.3959 176.115 38.8533ZM182.464 41.8898C184.213 41.8898 185.317 40.4866 185.317 38.8533C185.317 37.2199 184.213 35.8167 182.464 35.8167C180.624 35.8167 179.796 37.2199 179.796 38.8533C179.796 40.4866 180.624 41.8898 182.464 41.8898Z" fill="black"/>
</svg>
