<svg width="66" height="68" viewBox="0 0 66 68" fill="none" xmlns="http://www.w3.org/2000/svg">
<path d="M65.4959 33.8431C65.5494 41.0716 63.3863 47.7936 58.9649 53.7252C54.1903 60.1313 47.9341 64.3395 40.1985 66.2315C37.5893 66.8693 34.9296 67.147 32.2471 67.0707C24.9267 66.8639 18.2871 64.6294 12.5109 60.0313C6.77775 55.4684 2.98734 49.5742 1.0944 42.4487C0.243032 39.2437 -0.0860439 35.9777 0.0188678 32.6583C0.193972 27.1143 1.59934 21.9235 4.32402 17.1073C7.94385 10.7103 13.1645 6.11914 19.8155 3.15602C22.3454 2.02844 24.9796 1.24265 27.7065 0.810083C29.9436 0.455332 32.1958 0.337844 34.4661 0.467538C39.3864 0.748287 44.0199 2.05819 48.3115 4.47737C56.1247 8.88162 61.4805 15.3594 64.132 24.0451C64.7683 26.1294 65.169 28.267 65.3796 30.436C65.483 31.4972 65.5102 32.5668 65.4966 33.8423L65.4959 33.8431ZM5.8421 38.3621C5.93695 37.4331 6.37546 34.5 6.90153 31.9839C7.39514 29.6212 8.26387 27.3897 9.31827 25.2269C11.0814 21.6099 13.4581 18.4614 16.3798 15.7264C16.5074 15.6074 16.5368 15.4762 16.5413 15.3221C16.5587 14.7262 16.6062 14.135 16.7066 13.5445C17.1278 11.0628 18.4494 9.24781 20.6336 8.05921C21.5869 7.54043 22.5975 7.2757 23.6761 7.45498C25.5811 7.77159 27.2476 8.59171 28.6281 9.97104C28.7632 10.1061 28.8907 10.1473 29.0907 10.1328C30.6735 10.0153 32.2539 10.0565 33.8246 10.3037C34.0457 10.3388 34.1778 10.2877 34.3393 10.116C35.1432 9.26307 36.0564 8.55738 37.1712 8.16525C38.1796 7.8105 39.1721 7.83873 40.0121 8.56043C41.1277 9.51864 41.6854 10.7889 41.7579 12.2575C41.7745 12.6 41.8726 12.7602 42.1692 12.9105C44.0976 13.8847 45.9906 14.9215 47.7748 16.1536C49.1636 17.1126 50.0248 18.331 49.9342 20.1101C49.9101 20.5754 50.095 20.9996 50.3871 21.3704C51.4324 22.6971 52.6936 23.8155 53.8454 25.0399C54.979 26.2453 56.1753 27.3889 57.0788 28.7995C57.3573 29.2344 57.3995 29.6242 57.1633 30.0728C56.9822 30.4169 56.8486 30.7755 56.7791 31.1714C56.5965 32.212 56.6214 33.2702 56.4848 34.3123C56.2568 36.0571 55.5051 37.515 54.102 38.5937C53.9729 38.6929 53.9299 38.7677 53.9616 38.9347C54.0039 39.1567 53.9963 39.3894 54.0061 39.6175C54.1171 42.2465 52.9434 44.1606 50.7818 45.5201C50.1131 45.9405 49.393 46.0313 48.6156 45.9115C46.934 45.6521 45.4351 44.9586 44.0274 44.0264C43.398 43.6098 42.7511 43.2192 42.0515 42.9346C41.3797 42.6615 40.951 42.9713 40.939 43.7082C40.9216 44.7473 41.342 45.6529 41.8017 46.5401C46.2386 55.0976 56.1523 55.6143 60.4095 45.662C61.8043 42.4014 62.4889 38.9668 62.6942 35.4231C62.867 32.4363 62.6391 29.4831 61.9409 26.5864C60.2337 19.5043 56.5225 13.7276 50.7282 9.35614C45.9091 5.72014 40.4952 3.66335 34.4926 3.24375C31.7354 3.05073 28.9911 3.23993 26.2981 3.86857C19.2743 5.50881 13.5027 9.18754 9.06014 14.9299C5.32182 19.7614 3.34283 25.3016 2.83337 31.3904C2.66053 33.4578 2.71865 35.5253 2.96092 37.5897C3.24094 39.9738 4.01476 42.4487 4.01476 42.4487C4.01476 42.4487 5.61819 40.5551 5.8421 38.3621ZM23.781 15.0825C24.1674 14.9688 24.5199 15.0528 24.8595 15.2549C25.1879 15.4502 25.4709 15.6951 25.7154 15.9919C26.3177 16.722 26.7049 17.5681 27.0272 18.45C27.1095 18.6743 27.1782 18.9039 27.2536 19.1312C27.0536 19.1946 26.8498 19.2457 26.6559 19.3235C26.4589 19.4021 26.2626 19.4898 26.083 19.602C25.3803 20.0383 24.8648 20.6548 24.4776 21.3818C23.8263 22.6048 23.3946 23.9093 23.1425 25.2711C23.0217 25.9219 23.0006 26.5863 23.0345 27.26C23.6232 26.0722 24.0791 24.8233 24.9516 23.6873C24.9403 23.8605 24.9456 23.9253 24.9305 23.9856C24.6927 24.9392 24.6278 25.9097 24.6233 26.8892C24.6158 28.7232 25.0203 30.4444 26.0936 31.9412C27.7088 34.1933 29.927 35.5772 32.5445 36.3439C32.9098 36.4507 33.2781 36.5484 33.7401 36.5262C32.2758 35.1126 30.832 33.7737 29.6787 32.064C32.2162 32.9444 34.7182 33.2869 37.3357 32.7148C35.6217 31.1226 33.7257 29.7608 32.7498 27.4759C32.8442 27.5407 32.8781 27.5545 32.9 27.5797C34.2918 29.1924 36.0783 30.1949 38.0362 30.9021C38.52 31.0768 38.797 31.3377 39.0136 31.7924C39.6106 33.0482 40.4099 34.1391 41.6847 34.7876C41.7073 34.799 41.7133 34.8433 41.7277 34.8761C40.6099 35.0683 40.0823 35.5841 40.1095 36.5285C40.1374 37.5028 40.5344 38.3519 41.1745 39.0614C42.0153 39.9936 42.9957 40.7726 43.9957 41.5233C45.3377 42.5303 46.7355 43.442 48.3296 44.0004C48.8021 44.166 49.2798 44.211 49.7689 44.0637C51.4452 43.5595 52.7185 41.6232 52.6453 39.6854C52.6204 39.024 52.2611 38.5228 51.6301 38.3328C51.0097 38.1459 50.384 38.1871 49.7916 38.4449C49.0224 38.7799 48.2722 39.159 47.5039 39.4947C46.7801 39.8113 46.0374 40.1409 45.2441 40.1455C43.9135 40.1531 42.9013 39.4413 42.0334 38.4892C41.9345 38.3809 41.7926 38.2397 41.8696 38.094C41.936 37.9674 42.1232 37.959 42.2719 37.9491C42.9406 37.9048 43.595 37.9971 44.2486 38.1413C45.0675 38.3214 45.8887 38.535 46.737 38.3526C48.5432 37.9651 50.1372 37.1053 51.6498 36.0723C52.006 35.8289 52.2136 35.4811 52.277 35.034C52.3645 34.413 52.3374 33.7928 52.3374 33.171C52.3374 32.8239 52.2143 32.6522 51.8724 32.5149C50.9539 32.1472 50.0331 31.7588 49.3425 30.9944C48.8224 30.4184 48.7175 29.7669 49.0534 29.1345C49.5757 29.5861 50.2044 29.6151 50.8331 29.535C51.646 29.4312 52.446 29.4938 53.2174 29.7249C53.9707 29.9508 54.616 29.7837 55.2621 29.4076C55.4915 29.2741 55.4689 29.1978 55.3104 29.0246C53.3276 26.8618 51.3298 24.7157 49.1417 22.7581C48.3032 22.0074 47.5318 21.1842 47.088 20.1131C47.0435 20.0063 46.925 19.8957 47.0321 19.7294C47.0638 19.7721 47.0872 19.8011 47.1084 19.8324C47.2352 20.0223 47.3891 20.2787 47.608 20.2207C47.7711 20.1779 47.7461 19.8682 47.7726 19.6714C47.7892 19.5478 47.7778 19.4173 47.7605 19.293C47.6571 18.5705 47.1989 18.1021 46.6434 17.6977C44.4992 16.1376 42.2175 14.8269 39.7721 13.8115C37.4006 12.8266 34.9877 12.0179 32.3853 11.9653C31.7618 11.9523 31.1475 12.0156 30.4885 12.0187C30.9671 13.1882 30.9912 14.3333 30.7686 15.4968C30.678 15.4426 30.6342 15.3831 30.5972 15.3198C29.4281 13.3065 27.7661 11.7723 25.9034 10.4471C25.0475 9.8383 24.0708 9.46753 23.0157 9.52169C21.5628 9.5957 20.3793 10.2846 19.5785 11.4969C18.4252 13.2416 18.3256 15.1435 19.0162 17.0951C19.6238 18.8124 20.7521 20.1314 22.2164 21.2079C22.4036 20.5319 22.7598 19.9414 23.2647 19.428C22.2239 18.8795 21.4412 18.0861 20.765 17.2026C19.814 15.9606 19.5566 14.5469 20.0359 13.0417C20.6344 11.1604 22.3658 10.5432 23.987 11.6128C24.6995 12.0828 25.2898 12.6885 25.7796 13.3896C26.0943 13.8413 26.3834 14.3097 26.4815 14.92C25.5169 14.3448 24.6271 14.3898 23.7802 15.0856L23.781 15.0825ZM16.6508 44.4398C13.6853 43.6243 11.0746 40.2729 10.7312 35.1942C10.6376 35.2797 10.624 35.3941 10.6029 35.5009C10.2685 37.1579 10.2534 38.8111 10.5093 40.4888C10.8542 42.7523 11.9373 44.539 13.6929 45.942C14.6318 46.6919 15.6862 47.2565 16.7074 47.8745C18.6124 49.0257 20.4306 50.2883 21.8224 52.0765C22.8428 53.388 23.6232 54.8138 23.861 56.4976C23.8889 56.6944 23.8134 56.9172 23.9825 57.1407C24.0633 56.9401 24.1342 56.7814 24.1916 56.6181C24.8248 54.8031 24.8044 52.9821 24.1516 51.187C23.5915 49.6467 23.19 48.0972 23.4263 46.4364C23.547 45.585 23.7433 44.7626 24.2104 43.9066C24.2821 48.0072 26.3721 50.6072 29.7753 52.2917C28.6409 50.6392 28.0899 48.7793 27.8039 46.8194C27.625 45.5934 27.4725 44.3613 27.1087 43.1727C26.911 42.5272 26.6808 41.8925 26.4649 41.2524C27.3299 41.9726 28.1231 42.737 28.6847 43.7136C29.256 44.7069 29.5851 45.7993 29.9112 46.8834C30.7686 49.7359 32.3822 51.9911 34.8352 53.6672C36.4127 54.7452 37.4406 56.2809 38.0362 58.1058C38.2294 58.6985 38.3124 59.3157 38.3471 59.9444C38.9102 58.8298 39.1962 57.6442 39.2717 56.4175C39.4204 53.9975 38.7781 51.7454 37.661 49.6406C36.8927 48.1918 35.9877 46.8171 35.1522 45.4042C34.873 44.9319 34.6186 44.4444 34.3529 43.9646C34.6224 46.4921 35.1318 48.9547 35.9492 51.4067C35.679 51.2419 35.5273 51.042 35.3658 50.8521C34.2729 49.565 33.5906 48.0431 32.9423 46.5035C32.4509 45.337 31.9437 44.1843 31.2327 43.1292C29.9496 41.2257 28.256 39.7312 26.5359 38.2611C25.4294 37.3158 24.3523 36.3348 23.4821 35.1606C22.4911 33.8233 21.6616 32.3905 21.3552 30.7022C21.3107 30.7327 21.2767 30.7427 21.2737 30.7587C21.0789 31.839 21.0261 32.9215 21.2005 34.0125C21.4088 35.3147 21.842 36.5552 22.1832 37.8217C22.3779 38.5441 22.5817 39.2666 22.5998 40.0547C22.5485 40.0142 22.5228 40.0036 22.5145 39.986C21.8028 38.3267 20.8163 36.8283 19.8359 35.3262C18.2531 32.9017 17.2772 30.2689 17.1414 27.3416C17.1149 26.7672 17.0961 26.1919 17.0953 25.5618C15.7285 27.3035 15.4054 29.239 15.7179 31.4163C15.1752 30.8167 14.8197 30.2155 14.6001 29.5396C14.0461 27.8406 14.1133 26.124 14.4884 24.4014C14.6182 23.8048 14.8137 23.2258 14.9707 22.6299C14.5623 23.0175 14.2197 23.4508 13.8959 23.8986C12.5328 25.7868 11.886 27.9054 12.129 30.2269C12.3652 32.4874 13.5623 34.2757 15.1835 35.7809C15.9602 36.5018 16.8259 37.1251 17.598 37.8506C19.623 39.7518 20.8193 42.0108 20.4072 44.9106C20.3212 45.5178 20.1672 46.1045 19.7642 46.6393C19.3883 42.94 17.2667 40.4315 14.3925 38.4114C14.3872 38.464 14.3721 38.5037 14.3812 38.538C14.905 40.5773 15.6711 42.5227 16.6493 44.4421L16.6508 44.4398ZM55.2719 32.2891C54.6877 32.5851 54.228 32.9726 53.748 33.3274C53.6997 33.3632 53.6491 33.4144 53.6295 33.4693C53.3359 34.3039 53.0876 35.1507 53.1027 36.0471C53.1065 36.2646 53.1283 36.5377 53.3744 36.6308C53.6137 36.7208 53.7986 36.5369 53.9759 36.3965C54.0348 36.35 54.0884 36.2951 54.1382 36.2379C55.1111 35.1103 55.3481 33.7714 55.2711 32.2883L55.2719 32.2891Z" fill="#060606"/>
<path d="M41.4696 18.2776C42.1888 19.219 42.8485 20.1833 42.8191 21.4421C42.813 21.6946 42.8153 21.9601 42.7391 22.1951C42.6342 22.5178 42.7776 22.7215 42.9617 22.9359C43.924 24.0574 44.875 25.1888 45.6079 26.4849C45.6615 26.5795 45.7596 26.6551 45.7483 26.8382C43.912 25.5054 42.0251 24.3442 39.6876 24.1245C40.2869 23.5424 40.585 22.8909 40.4416 21.9746C40.2733 22.2851 40.1782 22.5232 39.9932 22.707C39.4762 23.2227 38.7373 23.2296 38.2135 22.723C37.8927 22.4133 37.6935 22.0166 37.4074 21.6695C37.1938 22.5621 37.8075 23.1503 38.2279 23.872C37.3735 23.4585 36.5734 23.0152 36.0791 22.2348C35.7266 21.6786 35.2503 21.5329 34.6835 21.4688C34.3152 21.4269 33.9461 21.3857 33.5642 21.2751C34.0072 21.1507 34.4526 21.0324 34.8941 20.9012C35.7077 20.6586 36.5274 20.432 37.3289 20.1551C38.6905 19.6844 39.9668 19.9415 41.2122 20.5511C41.5903 20.7357 41.5949 20.7372 41.6032 20.2909C41.6152 19.6188 41.5994 18.9497 41.4703 18.2784L41.4696 18.2776Z" fill="#060606"/>
</svg>
